<mxfile host="" modified="2020-05-24T15:21:41.060Z" agent="5.0 (X11; Linux x86_64) AppleWebKit/537.36 (KHTML, like Gecko) Code/1.45.0 Chrome/78.0.3904.130 Electron/7.2.4 Safari/537.36" version="13.1.3" etag="lrwgP8mNOWNbAz78NI_h" pages="2">
            <diagram id="diagramid" name="Diagram">
              <mxGraphModel><root><mxCell id="0"/><mxCell id="1" parent="0"/><mxCell id="2" value="LicenseDeployFunction" style="outlineConnect=0;fontColor=#B3B3B3;gradientColor=#F78E04;gradientDirection=north;fillColor=#D05C17;strokeColor=#ffffff;dashed=0;verticalLabelPosition=bottom;verticalAlign=top;align=center;html=1;fontSize=12;fontStyle=0;aspect=fixed;shape=mxgraph.aws4.resourceIcon;resIcon=mxgraph.aws4.lambda;" vertex="1" parent="1"><mxGeometry x="250" width="50" height="50" as="geometry"/></mxCell><mxCell id="3" value="LicensePurchaseFunction" style="outlineConnect=0;fontColor=#B3B3B3;gradientColor=#F78E04;gradientDirection=north;fillColor=#D05C17;strokeColor=#ffffff;dashed=0;verticalLabelPosition=bottom;verticalAlign=top;align=center;html=1;fontSize=12;fontStyle=0;aspect=fixed;shape=mxgraph.aws4.resourceIcon;resIcon=mxgraph.aws4.lambda;" vertex="1" parent="1"><mxGeometry x="250" y="100" width="50" height="50" as="geometry"/></mxCell><mxCell id="4" value="LicenseCreateFunction" style="outlineConnect=0;fontColor=#B3B3B3;gradientColor=#F78E04;gradientDirection=north;fillColor=#D05C17;strokeColor=#ffffff;dashed=0;verticalLabelPosition=bottom;verticalAlign=top;align=center;html=1;fontSize=12;fontStyle=0;aspect=fixed;shape=mxgraph.aws4.resourceIcon;resIcon=mxgraph.aws4.lambda;" vertex="1" parent="1"><mxGeometry x="250" y="200" width="50" height="50" as="geometry"/></mxCell><mxCell id="5" value="NonceRequestFunction" style="outlineConnect=0;fontColor=#B3B3B3;gradientColor=#F78E04;gradientDirection=north;fillColor=#D05C17;strokeColor=#ffffff;dashed=0;verticalLabelPosition=bottom;verticalAlign=top;align=center;html=1;fontSize=12;fontStyle=0;aspect=fixed;shape=mxgraph.aws4.resourceIcon;resIcon=mxgraph.aws4.lambda;" vertex="1" parent="1"><mxGeometry x="250" y="350" width="50" height="50" as="geometry"/></mxCell><mxCell id="6" value="NonceActivationFunction" style="outlineConnect=0;fontColor=#B3B3B3;gradientColor=#F78E04;gradientDirection=north;fillColor=#D05C17;strokeColor=#ffffff;dashed=0;verticalLabelPosition=bottom;verticalAlign=top;align=center;html=1;fontSize=12;fontStyle=0;aspect=fixed;shape=mxgraph.aws4.resourceIcon;resIcon=mxgraph.aws4.lambda;" vertex="1" parent="1"><mxGeometry x="250" y="450" width="50" height="50" as="geometry"/></mxCell><mxCell id="7" value="LicenseTable" style="outlineConnect=0;fontColor=#B3B3B3;gradientColor=#4D72F3;gradientDirection=north;fillColor=#3334B9;strokeColor=#ffffff;dashed=0;verticalLabelPosition=bottom;verticalAlign=top;align=center;html=1;fontSize=12;fontStyle=0;aspect=fixed;shape=mxgraph.aws4.resourceIcon;resIcon=mxgraph.aws4.dynamodb;" vertex="1" parent="1"><mxGeometry x="500" y="100" width="50" height="50" as="geometry"/></mxCell><mxCell id="8" value="ActivationRequestTable" style="outlineConnect=0;fontColor=#B3B3B3;gradientColor=#4D72F3;gradientDirection=north;fillColor=#3334B9;strokeColor=#ffffff;dashed=0;verticalLabelPosition=bottom;verticalAlign=top;align=center;html=1;fontSize=12;fontStyle=0;aspect=fixed;shape=mxgraph.aws4.resourceIcon;resIcon=mxgraph.aws4.dynamodb;" vertex="1" parent="1"><mxGeometry x="500" y="400" width="50" height="50" as="geometry"/></mxCell><mxCell id="9" value="LicenseDeployFunctionContract" style="outlineConnect=0;fontColor=#B3B3B3;gradientColor=#945DF2;gradientDirection=north;fillColor=#5A30B5;strokeColor=#ffffff;dashed=0;verticalLabelPosition=bottom;verticalAlign=top;align=center;html=1;fontSize=12;fontStyle=0;aspect=fixed;shape=mxgraph.aws4.resourceIcon;resIcon=mxgraph.aws4.api_gateway;" vertex="1" parent="1"><mxGeometry width="50" height="50" as="geometry"/></mxCell><mxCell id="10" value="LicensePurchaseFunctionContract" style="outlineConnect=0;fontColor=#B3B3B3;gradientColor=#945DF2;gradientDirection=north;fillColor=#5A30B5;strokeColor=#ffffff;dashed=0;verticalLabelPosition=bottom;verticalAlign=top;align=center;html=1;fontSize=12;fontStyle=0;aspect=fixed;shape=mxgraph.aws4.resourceIcon;resIcon=mxgraph.aws4.api_gateway;" vertex="1" parent="1"><mxGeometry y="100" width="50" height="50" as="geometry"/></mxCell><mxCell id="11" value="LicenseCreateFunctionContract" style="outlineConnect=0;fontColor=#B3B3B3;gradientColor=#945DF2;gradientDirection=north;fillColor=#5A30B5;strokeColor=#ffffff;dashed=0;verticalLabelPosition=bottom;verticalAlign=top;align=center;html=1;fontSize=12;fontStyle=0;aspect=fixed;shape=mxgraph.aws4.resourceIcon;resIcon=mxgraph.aws4.api_gateway;" vertex="1" parent="1"><mxGeometry y="200" width="50" height="50" as="geometry"/></mxCell><mxCell id="12" value="NonceRequestFunctionContract" style="outlineConnect=0;fontColor=#B3B3B3;gradientColor=#945DF2;gradientDirection=north;fillColor=#5A30B5;strokeColor=#ffffff;dashed=0;verticalLabelPosition=bottom;verticalAlign=top;align=center;html=1;fontSize=12;fontStyle=0;aspect=fixed;shape=mxgraph.aws4.resourceIcon;resIcon=mxgraph.aws4.api_gateway;" vertex="1" parent="1"><mxGeometry y="350" width="50" height="50" as="geometry"/></mxCell><mxCell id="13" value="NonceActivationFunctionContract" style="outlineConnect=0;fontColor=#B3B3B3;gradientColor=#945DF2;gradientDirection=north;fillColor=#5A30B5;strokeColor=#ffffff;dashed=0;verticalLabelPosition=bottom;verticalAlign=top;align=center;html=1;fontSize=12;fontStyle=0;aspect=fixed;shape=mxgraph.aws4.resourceIcon;resIcon=mxgraph.aws4.api_gateway;" vertex="1" parent="1"><mxGeometry y="450" width="50" height="50" as="geometry"/></mxCell><mxCell id="LicenseTable|LicenseDeployFunction" value="DynamoDBCrudPolicy&#xA;Variable" style="edgeStyle=orthogonalEdgeStyle;rounded=1;orthogonalLoop=1;jettySize=auto;html=1;labelBackgroundColor=none;fontColor=#EA6B66;noEdgeStyle=1;orthogonal=1;" edge="1" parent="1" source="2" target="7"><mxGeometry relative="1" as="geometry"><Array as="points"><mxPoint x="312" y="25"/><mxPoint x="488" y="111.66666666666667"/></Array></mxGeometry></mxCell><mxCell id="LicenseTable|LicensePurchaseFunction" value="DynamoDBCrudPolicy&#xA;Variable" style="edgeStyle=orthogonalEdgeStyle;rounded=1;orthogonalLoop=1;jettySize=auto;html=1;labelBackgroundColor=none;fontColor=#EA6B66;noEdgeStyle=1;orthogonal=1;" edge="1" parent="1" source="3" target="7"><mxGeometry relative="1" as="geometry"><Array as="points"><mxPoint x="312" y="125"/><mxPoint x="486" y="125"/></Array></mxGeometry></mxCell><mxCell id="LicenseTable|LicenseCreateFunction" value="DynamoDBCrudPolicy&#xA;Variable" style="edgeStyle=orthogonalEdgeStyle;rounded=1;orthogonalLoop=1;jettySize=auto;html=1;labelBackgroundColor=none;fontColor=#EA6B66;noEdgeStyle=1;orthogonal=1;" edge="1" parent="1" source="4" target="7"><mxGeometry relative="1" as="geometry"><Array as="points"><mxPoint x="312" y="225"/><mxPoint x="488" y="138.33333333333334"/></Array></mxGeometry></mxCell><mxCell id="ActivationRequestTable|NonceRequestFunction" value="DynamoDBCrudPolicy&#xA;Variable" style="edgeStyle=orthogonalEdgeStyle;rounded=1;orthogonalLoop=1;jettySize=auto;html=1;labelBackgroundColor=none;fontColor=#EA6B66;noEdgeStyle=1;orthogonal=1;" edge="1" parent="1" source="5" target="8"><mxGeometry relative="1" as="geometry"><Array as="points"><mxPoint x="312" y="375"/><mxPoint x="488" y="415"/></Array></mxGeometry></mxCell><mxCell id="ActivationRequestTable|NonceActivationFunction" value="DynamoDBCrudPolicy&#xA;Variable" style="edgeStyle=orthogonalEdgeStyle;rounded=1;orthogonalLoop=1;jettySize=auto;html=1;labelBackgroundColor=none;fontColor=#EA6B66;noEdgeStyle=1;orthogonal=1;" edge="1" parent="1" source="6" target="8"><mxGeometry relative="1" as="geometry"><Array as="points"><mxPoint x="312" y="475"/><mxPoint x="488" y="435"/></Array></mxGeometry></mxCell><mxCell id="LicenseDeployFunction|LicenseDeployFunctionContract" value="Arn" style="edgeStyle=orthogonalEdgeStyle;rounded=1;orthogonalLoop=1;jettySize=auto;html=1;labelBackgroundColor=none;fontColor=#EA6B66;noEdgeStyle=1;orthogonal=1;" edge="1" parent="1" source="9" target="2"><mxGeometry relative="1" as="geometry"><Array as="points"><mxPoint x="62" y="25"/><mxPoint x="238" y="25"/></Array></mxGeometry></mxCell><mxCell id="LicensePurchaseFunction|LicensePurchaseFunctionContract" value="Arn" style="edgeStyle=orthogonalEdgeStyle;rounded=1;orthogonalLoop=1;jettySize=auto;html=1;labelBackgroundColor=none;fontColor=#EA6B66;noEdgeStyle=1;orthogonal=1;" edge="1" parent="1" source="10" target="3"><mxGeometry relative="1" as="geometry"><Array as="points"><mxPoint x="62" y="125"/><mxPoint x="238" y="125"/></Array></mxGeometry></mxCell><mxCell id="LicenseCreateFunction|LicenseCreateFunctionContract" value="Arn" style="edgeStyle=orthogonalEdgeStyle;rounded=1;orthogonalLoop=1;jettySize=auto;html=1;labelBackgroundColor=none;fontColor=#EA6B66;noEdgeStyle=1;orthogonal=1;" edge="1" parent="1" source="11" target="4"><mxGeometry relative="1" as="geometry"><Array as="points"><mxPoint x="62" y="225"/><mxPoint x="238" y="225"/></Array></mxGeometry></mxCell><mxCell id="NonceRequestFunction|NonceRequestFunctionContract" value="Arn" style="edgeStyle=orthogonalEdgeStyle;rounded=1;orthogonalLoop=1;jettySize=auto;html=1;labelBackgroundColor=none;fontColor=#EA6B66;noEdgeStyle=1;orthogonal=1;" edge="1" parent="1" source="12" target="5"><mxGeometry relative="1" as="geometry"><Array as="points"><mxPoint x="62" y="375"/><mxPoint x="238" y="375"/></Array></mxGeometry></mxCell><mxCell id="NonceActivationFunction|NonceActivationFunctionContract" value="Arn" style="edgeStyle=orthogonalEdgeStyle;rounded=1;orthogonalLoop=1;jettySize=auto;html=1;labelBackgroundColor=none;fontColor=#EA6B66;noEdgeStyle=1;orthogonal=1;" edge="1" parent="1" source="13" target="6"><mxGeometry relative="1" as="geometry"><Array as="points"><mxPoint x="62" y="475"/><mxPoint x="238" y="475"/></Array></mxGeometry></mxCell></root></mxGraphModel>
            </diagram>
          </mxfile>